{
  "accessors": [
    {
      "bufferView": 2,
      "componentType": 5126,
      "count": 65532,
      "max": [
        9.849251747131348,
        16.092796325683594,
        17.14054298400879
      ],
      "min": [
        -9.372114181518555,
        0.025107000023126602,
        -13.886221885681152
      ],
      "type": "VEC3"
    },
    {
      "bufferView": 2,
      "byteOffset": 786384,
      "componentType": 5126,
      "count": 65532,
      "max": [
        0.9999799132347107,
        1.0,
        0.9993376731872559
      ],
      "min": [
        -0.9999935030937195,
        -0.9999961256980896,
        -0.9999852180480957
      ],
      "type": "VEC3"
    },
    {
      "bufferView": 3,
      "componentType": 5126,
      "count": 65532,
      "max": [
        0.9981187582015991,
        1.0,
        1.0,
        1.0
      ],
      "min": [
        -0.9938065409660339,
        -1.0,
        -1.0,
        -1.0
      ],
      "type": "VEC4"
    },
    {
      "bufferView": 1,
      "componentType": 5126,
      "count": 65532,
      "max": [
        0.9995114207267761,
        0.9956053495407104
      ],
      "min": [
        0.00048828125,
        0.00029184354934841394
      ],
      "type": "VEC2"
    },
    {
      "bufferView": 1,
      "byteOffset": 524256,
      "componentType": 5126,
      "count": 65532,
      "max": [
        0.9995114207267761,
        0.9956053495407104
      ],
      "min": [
        0.00048828125,
        0.00029184354934841394
      ],
      "type": "VEC2"
    },
    {
      "bufferView": 0,
      "componentType": 5125,
      "count": 271440,
      "type": "SCALAR"
    },
    {
      "bufferView": 2,
      "byteOffset": 1572768,
      "componentType": 5126,
      "count": 10256,
      "max": [
        9.849251747131348,
        11.198785781860352,
        17.141407012939453
      ],
      "min": [
        -2.6426138877868652,
        0.06739100068807602,
        -3.456648111343384
      ],
      "type": "VEC3"
    },
    {
      "bufferView": 2,
      "byteOffset": 1695840,
      "componentType": 5126,
      "count": 10256,
      "max": [
        0.9992532730102539,
        0.998833954334259,
        0.999397873878479
      ],
      "min": [
        -0.9983406662940979,
        -0.9999521970748901,
        -0.9921843409538269
      ],
      "type": "VEC3"
    },
    {
      "bufferView": 3,
      "byteOffset": 1048512,
      "componentType": 5126,
      "count": 10256,
      "max": [
        0.994623064994812,
        0.9999856352806091,
        1.0,
        1.0
      ],
      "min": [
        -0.9799582958221436,
        -0.9999838471412659,
        -0.9999999403953552,
        -1.0
      ],
      "type": "VEC4"
    },
    {
      "bufferView": 1,
      "byteOffset": 1048512,
      "componentType": 5126,
      "count": 10256,
      "max": [
        0.9994738698005676,
        0.9858397245407104
      ],
      "min": [
        0.00048828125,
        0.0004121853271499276
      ],
      "type": "VEC2"
    },
    {
      "bufferView": 1,
      "byteOffset": 1130560,
      "componentType": 5126,
      "count": 10256,
      "max": [
        0.9994738698005676,
        0.9858397245407104
      ],
      "min": [
        0.00048828125,
        0.0004121853271499276
      ],
      "type": "VEC2"
    },
    {
      "bufferView": 0,
      "byteOffset": 1085760,
      "componentType": 5125,
      "count": 28458,
      "type": "SCALAR"
    }
  ],
  "asset": {
    "extras": {
      "author": "Eydeet (https://sketchfab.com/eydeet)",
      "license": "CC-BY-4.0 (http://creativecommons.org/licenses/by/4.0/)",
      "source": "https://sketchfab.com/3d-models/black-boot-f014415aed764efea365050ff64aa62c",
      "title": "Black Boot"
    },
    "generator": "Sketchfab-13.35.0",
    "version": "2.0"
  },
  "bufferViews": [
    {
      "buffer": 0,
      "byteLength": 1199592,
      "name": "floatBufferViews",
      "target": 34963
    },
    {
      "buffer": 0,
      "byteLength": 1212608,
      "byteOffset": 1199592,
      "byteStride": 8,
      "name": "floatBufferViews",
      "target": 34962
    },
    {
      "buffer": 0,
      "byteLength": 1818912,
      "byteOffset": 2412200,
      "byteStride": 12,
      "name": "floatBufferViews",
      "target": 34962
    },
    {
      "buffer": 0,
      "byteLength": 1212608,
      "byteOffset": 4231112,
      "byteStride": 16,
      "name": "floatBufferViews",
      "target": 34962
    }
  ],
  "buffers": [
    {
      "byteLength": 5443720,
      "uri": "scene.bin"
    }
  ],
  "images": [
    {
      "uri": "textures/shoe_100k_st_u1_v1_baseColor.png"
    },
    {
      "uri": "textures/shoe_100k_st_u1_v1_normal.png"
    }
  ],
  "materials": [
    {
      "doubleSided": true,
      "name": "shoe_100k_st_u1_v1",
      "normalTexture": {
        "index": 1,
        "texCoord": 1
      },
      "pbrMetallicRoughness": {
        "baseColorTexture": {
          "index": 0
        },
        "metallicFactor": 0.0
      }
    }
  ],
  "meshes": [
    {
      "name": "shoe_100k_st_shoe_100k_st_u1_v1_0",
      "primitives": [
        {
          "attributes": {
            "NORMAL": 1,
            "POSITION": 0,
            "TANGENT": 2,
            "TEXCOORD_0": 3,
            "TEXCOORD_1": 4
          },
          "indices": 5,
          "material": 0,
          "mode": 4
        }
      ]
    },
    {
      "name": "shoe_100k_st_shoe_100k_st_u1_v1_0",
      "primitives": [
        {
          "attributes": {
            "NORMAL": 7,
            "POSITION": 6,
            "TANGENT": 8,
            "TEXCOORD_0": 9,
            "TEXCOORD_1": 10
          },
          "indices": 11,
          "material": 0,
          "mode": 4
        }
      ]
    }
  ],
  "nodes": [
    {
      "children": [
        1
      ],
      "matrix": [
        1.0,
        0.0,
        0.0,
        0.0,
        0.0,
        2.220446049250313e-16,
        -1.0,
        0.0,
        0.0,
        1.0,
        2.220446049250313e-16,
        0.0,
        0.0,
        0.0,
        0.0,
        1.0
      ],
      "name": "Sketchfab_model"
    },
    {
      "children": [
        2
      ],
      "matrix": [
        0.009999999776482582,
        0.0,
        0.0,
        0.0,
        0.0,
        0.0,
        0.009999999776482582,
        0.0,
        0.0,
        -0.009999999776482582,
        0.0,
        0.0,
        0.0,
        0.0,
        0.0,
        1.0
      ],
      "name": "0cc0928d0a6646aeb322589cdbfcfa5e.fbx"
    },
    {
      "children": [
        3
      ],
      "name": "RootNode"
    },
    {
      "children": [
        4,
        5
      ],
      "matrix": [
        100.0,
        0.0,
        0.0,
        0.0,
        0.0,
        99.99999999999866,
        1.6292067073209114e-05,
        0.0,
        0.0,
        -1.6292067073209114e-05,
        99.99999999999866,
        0.0,
        0.0,
        0.0,
        0.0,
        1.0
      ],
      "name": "shoe_100k_st"
    },
    {
      "mesh": 0,
      "name": "shoe_100k_st_shoe_100k_st_u1_v1_0"
    },
    {
      "mesh": 1,
      "name": "shoe_100k_st_shoe_100k_st_u1_v1_0"
    }
  ],
  "samplers": [
    {
      "magFilter": 9729,
      "minFilter": 9987,
      "wrapS": 10497,
      "wrapT": 10497
    }
  ],
  "scene": 0,
  "scenes": [
    {
      "name": "Sketchfab_Scene",
      "nodes": [
        0
      ]
    }
  ],
  "textures": [
    {
      "sampler": 0,
      "source": 0
    },
    {
      "sampler": 0,
      "source": 1
    }
  ]
}
